<?xml version="1.0" encoding="UTF-8"?>
<svg width="19px" height="27px" viewBox="0 0 19 27" version="1.1" xmlns="http://www.w3.org/2000/svg" xmlns:xlink="http://www.w3.org/1999/xlink">
    <!-- Generator: Sketch 52.6 (67491) - http://www.bohemiancoding.com/sketch -->
    <title>icon_form</title>
    <desc>Created with Sketch.</desc>
    <g id="Page-1" stroke="none" stroke-width="1" fill="none" fill-rule="evenodd">
        <g id="Forms" transform="translate(-26.000000, -309.000000)" fill="#4C4D5F" fill-rule="nonzero" stroke="#4C4D5F">
            <g id="icon_form" transform="translate(27.000000, 310.000000)">
                <g id="Group">
                    <path d="M1.68,25.6 L15.92,25.6 C16.8,25.6 17.48,24.88 17.48,24.04 L17.48,4.88 C17.48,4 16.76,3.32 15.92,3.32 L13.56,3.32 L13.56,2.36 C13.56,2.12 13.4,1.96 13.16,1.96 L11.12,1.96 C10.92,0.84 9.96,0 8.8,0 C7.64,0 6.68,0.84 6.48,1.96 L4.44,1.96 C4.2,1.96 4.04,2.12 4.04,2.36 L4.04,3.32 L1.68,3.32 C0.8,3.32 0.12,4.04 0.12,4.88 L0.12,24.04 C0.12,24.88 0.84,25.6 1.68,25.6 Z M4.84,2.76 L6.84,2.76 C7.08,2.76 7.24,2.6 7.24,2.36 C7.24,1.48 7.96,0.8 8.8,0.8 C9.64,0.8 10.36,1.48 10.36,2.36 C10.36,2.6 10.52,2.76 10.76,2.76 L12.76,2.76 L12.76,4.52 L4.84,4.52 L4.84,2.76 Z M0.92,4.88 C0.92,4.44 1.28,4.12 1.68,4.12 L4.04,4.12 L4.04,4.88 C4.04,5.12 4.2,5.28 4.44,5.28 L13.16,5.28 C13.4,5.28 13.56,5.12 13.56,4.88 L13.56,4.12 L15.92,4.12 C16.36,4.12 16.68,4.48 16.68,4.88 L16.68,24.04 C16.68,24.48 16.32,24.8 15.92,24.8 L1.68,24.8 C1.24,24.8 0.92,24.44 0.92,24.04 L0.92,4.88 Z" id="Shape" stroke-width="0.8"></path>
                    <path d="M8.64,9.88 L11.52,9.88 C11.76,9.88 11.92,9.72 11.92,9.48 C11.92,9.24 11.76,9.08 11.52,9.08 L8.64,9.08 C8.4,9.08 8.24,9.24 8.24,9.48 C8.24,9.72 8.44,9.88 8.64,9.88 Z" id="Path" stroke-width="0.19"></path>
                    <path d="M13.2,10.72 L8.64,10.72 C8.4,10.72 8.24,10.88 8.24,11.12 C8.24,11.36 8.4,11.52 8.64,11.52 L13.2,11.52 C13.44,11.52 13.6,11.36 13.6,11.12 C13.6,10.88 13.44,10.72 13.2,10.72 Z" id="Path" stroke-width="0.19"></path>
                    <path d="M6.72,18.2 L4.4,18.2 C4.16,18.2 4,18.36 4,18.6 L4,20.92 C4,21.16 4.16,21.32 4.4,21.32 L6.72,21.32 C6.96,21.32 7.12,21.16 7.12,20.92 L7.12,18.6 C7.12,18.4 6.96,18.2 6.72,18.2 Z M6.32,20.56 L4.8,20.56 L4.8,19.04 L6.32,19.04 L6.32,20.56 Z" id="Shape" stroke-width="0.19"></path>
                    <path d="M8.64,19.36 L11.52,19.36 C11.76,19.36 11.92,19.2 11.92,18.96 C11.92,18.72 11.76,18.56 11.52,18.56 L8.64,18.56 C8.4,18.56 8.24,18.72 8.24,18.96 C8.24,19.2 8.44,19.36 8.64,19.36 Z" id="Path" stroke-width="0.19"></path>
                    <path d="M13.2,20.2 L8.64,20.2 C8.4,20.2 8.24,20.36 8.24,20.6 C8.24,20.84 8.4,21 8.64,21 L13.2,21 C13.44,21 13.6,20.84 13.6,20.6 C13.6,20.36 13.44,20.2 13.2,20.2 Z" id="Path" stroke-width="0.19"></path>
                    <path d="M6.72,13.48 L4.4,13.48 C4.16,13.48 4,13.64 4,13.88 L4,16.2 C4,16.44 4.16,16.6 4.4,16.6 L6.72,16.6 C6.96,16.6 7.12,16.44 7.12,16.2 L7.12,13.88 C7.12,13.68 6.96,13.48 6.72,13.48 Z M6.32,15.8 L4.8,15.8 L4.8,14.28 L6.32,14.28 L6.32,15.8 Z" id="Shape" stroke-width="0.19"></path>
                    <path d="M8.64,14.64 L11.52,14.64 C11.76,14.64 11.92,14.48 11.92,14.24 C11.92,14 11.76,13.84 11.52,13.84 L8.64,13.84 C8.4,13.84 8.24,14 8.24,14.24 C8.24,14.48 8.44,14.64 8.64,14.64 Z" id="Path" stroke-width="0.19"></path>
                    <path d="M13.2,15.48 L8.64,15.48 C8.4,15.48 8.24,15.64 8.24,15.88 C8.24,16.12 8.4,16.28 8.64,16.28 L13.2,16.28 C13.44,16.28 13.6,16.12 13.6,15.88 C13.6,15.64 13.44,15.48 13.2,15.48 Z" id="Path" stroke-width="0.19"></path>
                    <path d="M6.88,9.2 L5.4,10.68 L4.72,10 C4.56,9.84 4.32,9.84 4.16,10 C4,10.16 4,10.4 4.16,10.56 L5.12,11.52 C5.28,11.68 5.52,11.68 5.68,11.52 L7.44,9.76 C7.6,9.6 7.6,9.36 7.44,9.2 C7.28,9.04 7.04,9.04 6.88,9.2 Z" id="Path" stroke-width="0.19"></path>
                </g>
            </g>
        </g>
    </g>
</svg>