<?xml version="1.0" encoding="UTF-8"?>
<svg width="18px" height="25px" viewBox="0 0 18 25" version="1.1" xmlns="http://www.w3.org/2000/svg" xmlns:xlink="http://www.w3.org/1999/xlink">
    <!-- Generator: Sketch 62 (91390) - https://sketch.com -->
    <title>proposals</title>
    <desc>Created with Sketch.</desc>
    <g id="Page-1" stroke="none" stroke-width="1" fill="none" fill-rule="evenodd">
        <g id="proposals" fill="#00B289" fill-rule="nonzero">
            <path d="M15.7482098,0 L2.2326946,0 C1.0559276,0 0.0981633736,0.924702774 1.45519152e-11,2.09421546 C1.45519152e-11,2.09421546 1.45519152e-11,8.97070765 1.45519152e-11,22.723692 C1.45519152e-11,24.2602042 0.918834072,25 2.2326946,25 L15.7482098,25 C16.9897228,25 18,23.974404 18,22.7133906 L18,2.28660938 C18,1.02559597 16.9900212,0 15.7482098,0 Z M15.7485082,1.1431532 C16.3694139,1.1431532 16.8742541,1.65579969 16.8742541,2.2863064 L16.8742541,22.7130876 C16.8742541,23.3432914 16.3694139,23.8562408 15.7485082,23.8562408 L2.23299297,23.8562408 C1.61208726,23.8562408 1.10724705,23.3432914 1.10724705,22.7130876 L1.10724705,2.2863064 C1.10724705,1.65579969 1.61208726,1.1431532 2.23299297,1.1431532 L15.7485082,1.1431532 Z M6,3 C4.34314575,3 3,4.34314575 3,6 C3,7.65685425 4.34314575,9 6,9 C7.65685425,9 9,7.65685425 9,6 C9,4.34314575 7.65685425,3 6,3 Z M6,4.14 C7.02724963,4.14 7.86,4.97275037 7.86,6 C7.86,7.02724963 7.02724963,7.86 6,7.86 C4.97275036,7.86 4.14,7.02724963 4.14,6 C4.14,4.97275037 4.97275036,4.14 6,4.14 Z M14.4322761,13.1431532 L3.54246203,13.1431532 C3.23716089,13.1431532 2.98736905,13.006811 2.98736905,12.8401706 L2.98736905,12.3029826 C2.98736905,12.1363422 3.23716089,12 3.54246203,12 L14.4322761,12 C14.7375772,12 14.987369,12.1363422 14.987369,12.3029826 L14.987369,12.8401706 C14.987369,13.006811 14.7375772,13.1431532 14.4322761,13.1431532 Z M14.4322761,16.5729158 L3.54246203,16.5729158 C3.23716089,16.5729158 2.98736905,16.4365736 2.98736905,16.2699332 L2.98736905,15.7327451 C2.98736905,15.5661047 3.23716089,15.4297626 3.54246203,15.4297626 L14.4322761,15.4297626 C14.7375772,15.4297626 14.987369,15.5661047 14.987369,15.7327451 L14.987369,16.2699332 C14.987369,16.4365736 14.7375772,16.5729158 14.4322761,16.5729158 Z M14.4322761,20.1431532 L3.54246203,20.1431532 C3.23716089,20.1431532 2.98736905,20.006811 2.98736905,19.8401706 L2.98736905,19.3029826 C2.98736905,19.1363422 3.23716089,19 3.54246203,19 L14.4322761,19 C14.7375772,19 14.987369,19.1363422 14.987369,19.3029826 L14.987369,19.8401706 C14.987369,20.006811 14.7375772,20.1431532 14.4322761,20.1431532 Z" id="Shape"></path>
        </g>
    </g>
</svg>